<svg xmlns="http://www.w3.org/2000/svg" xmlns:xlink="http://www.w3.org/1999/xlink" width="500" zoomAndPan="magnify" viewBox="0 0 375 374.999991" height="500" preserveAspectRatio="xMidYMid meet" version="1.0"><defs><g/><clipPath id="id1"><path d="M 37.5 37.5 L 337.5 37.5 L 337.5 337.5 L 37.5 337.5 Z M 37.5 37.5 " clip-rule="nonzero"/></clipPath><clipPath id="id2"><path d="M 105 83 L 270 83 L 270 212.742188 L 105 212.742188 Z M 105 83 " clip-rule="nonzero"/></clipPath></defs><g clip-path="url(#id1)"><path fill="#333333" d="M 187.5 37.5 C 104.65625 37.5 37.5 104.65625 37.5 187.5 C 37.5 270.34375 104.65625 337.5 187.5 337.5 C 270.34375 337.5 337.5 270.34375 337.5 187.5 C 337.5 104.65625 270.34375 37.5 187.5 37.5 " fill-opacity="1" fill-rule="nonzero"/></g><path fill="#ffffff" d="M 135.21875 139.339844 C 135.425781 139.433594 135.640625 139.480469 135.851562 139.480469 C 136.398438 139.480469 136.925781 139.175781 137.175781 138.648438 C 137.753906 137.4375 139.042969 137.46875 139.171875 137.476562 C 139.980469 137.539062 140.683594 136.9375 140.75 136.132812 C 140.8125 135.324219 140.210938 134.621094 139.40625 134.554688 C 138.148438 134.453125 135.703125 134.9375 134.53125 137.382812 C 134.179688 138.113281 134.488281 138.988281 135.21875 139.339844 " fill-opacity="1" fill-rule="nonzero"/><path fill="#ffffff" d="M 125.617188 137.476562 C 125.632812 137.476562 127.003906 137.378906 127.613281 138.648438 C 127.863281 139.175781 128.386719 139.480469 128.9375 139.480469 C 129.148438 139.480469 129.363281 139.433594 129.566406 139.339844 C 130.296875 138.988281 130.609375 138.113281 130.257812 137.382812 C 129.085938 134.9375 126.640625 134.453125 125.382812 134.554688 C 124.578125 134.621094 123.976562 135.324219 124.039062 136.132812 C 124.105469 136.9375 124.8125 137.539062 125.617188 137.476562 " fill-opacity="1" fill-rule="nonzero"/><path fill="#ffffff" d="M 142.238281 112.195312 C 141.425781 112.195312 140.769531 112.851562 140.769531 113.660156 C 140.769531 114.46875 141.425781 115.125 142.238281 115.125 C 142.964844 115.125 143.285156 115.304688 143.351562 115.347656 C 143.636719 115.652344 144.023438 115.808594 144.417969 115.808594 C 144.738281 115.808594 145.058594 115.707031 145.328125 115.496094 C 145.960938 114.992188 146.070312 114.070312 145.570312 113.4375 C 145.40625 113.230469 144.472656 112.195312 142.238281 112.195312 " fill-opacity="1" fill-rule="nonzero"/><path fill="#ffffff" d="M 125.195312 112.195312 C 122.957031 112.195312 122.023438 113.230469 121.859375 113.4375 C 121.359375 114.070312 121.46875 114.992188 122.101562 115.496094 C 122.371094 115.707031 122.691406 115.808594 123.011719 115.808594 C 123.40625 115.808594 123.792969 115.652344 124.078125 115.347656 C 124.144531 115.304688 124.464844 115.125 125.195312 115.125 C 126.003906 115.125 126.660156 114.46875 126.660156 113.660156 C 126.660156 112.851562 126.003906 112.195312 125.195312 112.195312 " fill-opacity="1" fill-rule="nonzero"/><g clip-path="url(#id2)"><path fill="#ffffff" d="M 266.710938 168.117188 C 266.25 171.738281 264.40625 173.351562 263.242188 173.351562 C 263.238281 173.351562 263.234375 173.351562 263.234375 173.351562 C 263.042969 173.058594 262.851562 172.160156 262.734375 171.605469 C 262.453125 170.289062 262.136719 168.792969 261.148438 167.6875 C 260.5625 167.027344 261.570312 162.996094 264.023438 160.234375 C 264.101562 160.148438 264.199219 160.132812 264.265625 160.132812 C 264.328125 160.136719 264.421875 160.15625 264.492188 160.246094 C 265.753906 161.867188 267.164062 164.546875 266.710938 168.117188 Z M 251.558594 163.734375 C 251.152344 165.457031 250.734375 167.214844 250.320312 169.007812 C 250.171875 169.65625 249.785156 170.945312 249.292969 172.578125 C 247.398438 178.894531 243.871094 190.65625 243.324219 200.210938 C 242.992188 206.027344 241.738281 208.597656 241.023438 209.613281 C 240.941406 209.730469 240.796875 209.800781 240.636719 209.800781 L 235.097656 209.800781 C 234.824219 209.800781 234.699219 209.636719 234.644531 209.496094 C 234.597656 209.382812 234.550781 209.160156 234.757812 208.960938 L 235.796875 207.960938 C 236.597656 207.191406 236.972656 206.078125 236.804688 204.984375 C 236.324219 201.851562 235.054688 194.167969 233.683594 190.40625 C 233.035156 188.625 230.894531 186.496094 227.929688 183.550781 C 225.007812 180.648438 221.457031 177.117188 218.894531 173.320312 C 222.785156 172 226.4375 169.957031 229.628906 166.636719 C 230.1875 166.054688 230.171875 165.125 229.585938 164.566406 C 229 164.003906 228.074219 164.023438 227.511719 164.609375 C 220.871094 171.515625 211.53125 172.316406 202.496094 173.089844 C 200.757812 173.238281 199 173.390625 197.257812 173.585938 C 197.242188 173.585938 197.230469 173.589844 197.214844 173.589844 C 194.605469 173.886719 192.019531 174.28125 189.566406 174.929688 C 191.039062 170.285156 191.808594 167.75 191.808594 166.4375 C 191.808594 165.628906 191.152344 164.972656 190.34375 164.972656 C 189.53125 164.972656 188.875 165.628906 188.875 166.4375 C 188.875 167.417969 187.753906 170.949219 186.5625 174.691406 C 184.195312 182.148438 180.945312 192.363281 180.503906 200.117188 C 180.167969 205.945312 178.910156 208.566406 178.191406 209.609375 C 178.105469 209.730469 177.960938 209.800781 177.800781 209.800781 L 172.277344 209.800781 C 171.992188 209.800781 171.871094 209.609375 171.824219 209.496094 C 171.765625 209.359375 171.742188 209.152344 171.9375 208.960938 L 172.960938 207.976562 C 173.773438 207.191406 174.148438 206.0625 173.957031 204.949219 C 173.519531 202.339844 172.027344 193.550781 171.386719 189.992188 C 171.023438 187.964844 168.695312 185.703125 164.613281 181.878906 C 162.378906 179.785156 159.910156 177.472656 157.777344 175.066406 C 157.75 175.035156 157.71875 174.996094 157.6875 174.964844 C 154.90625 171.8125 152.714844 168.503906 152.394531 165.324219 C 152.3125 164.519531 151.589844 163.933594 150.789062 164.011719 C 149.980469 164.09375 149.394531 164.8125 149.476562 165.617188 C 149.75 168.335938 151.039062 171.007812 152.839844 173.574219 C 149.375 172.527344 146.246094 171.039062 143.503906 169.132812 C 140.636719 167.136719 139.886719 164.671875 139.019531 161.816406 C 138.34375 159.597656 137.644531 157.304688 135.898438 155.148438 C 135.386719 154.515625 134.464844 154.421875 133.835938 154.929688 C 133.203125 155.4375 133.105469 156.363281 133.617188 156.988281 C 135.003906 158.703125 135.589844 160.628906 136.210938 162.671875 C 137.109375 165.617188 138.128906 168.960938 141.828125 171.535156 C 145.832031 174.324219 150.5625 176.277344 155.898438 177.359375 C 157.496094 179.132812 159.230469 180.828125 160.917969 182.425781 C 160.921875 182.847656 160.929688 183.308594 160.9375 183.808594 C 161 187.429688 161.097656 192.894531 160.160156 200.269531 C 159.441406 205.90625 158.347656 208.503906 157.761719 209.554688 C 157.671875 209.710938 157.507812 209.808594 157.328125 209.808594 L 151.925781 209.808594 C 151.636719 209.808594 151.519531 209.617188 151.472656 209.503906 C 151.414062 209.363281 151.390625 209.15625 151.585938 208.96875 L 152.605469 207.988281 C 153.421875 207.199219 153.796875 206.0625 153.601562 204.945312 C 153.289062 203.144531 151.703125 193.96875 151.035156 190.246094 C 150.671875 188.21875 148.34375 185.957031 144.261719 182.132812 C 139.070312 177.269531 132.609375 171.21875 132.042969 165.578125 C 131.542969 160.625 129.738281 157.933594 127.992188 155.332031 C 126.472656 153.070312 124.914062 150.75 124.078125 146.632812 C 125.949219 148.050781 128.078125 148.96875 130.445312 149.378906 C 130.449219 149.382812 130.453125 149.382812 130.460938 149.382812 C 131.042969 149.484375 131.644531 149.554688 132.257812 149.59375 C 132.3125 149.597656 132.367188 149.601562 132.421875 149.605469 C 132.714844 149.621094 133.007812 149.632812 133.304688 149.636719 C 133.316406 149.636719 133.324219 149.636719 133.332031 149.636719 C 133.367188 149.636719 133.402344 149.636719 133.4375 149.636719 C 133.4375 149.636719 133.441406 149.636719 133.441406 149.636719 C 133.441406 149.636719 133.445312 149.636719 133.445312 149.636719 C 146.542969 149.636719 150.925781 134.871094 151.960938 130.332031 C 152.140625 129.542969 151.644531 128.757812 150.855469 128.578125 C 150.066406 128.398438 149.277344 128.894531 149.097656 129.683594 C 148.765625 131.152344 148.035156 133.84375 146.707031 136.660156 C 146.5 135.332031 146.035156 134.027344 145.289062 132.828125 L 145.257812 132.78125 C 145.257812 132.78125 145.257812 132.777344 145.253906 132.777344 C 141.960938 127.5625 130.582031 124.664062 123.460938 128.835938 C 121.5625 129.949219 120.148438 131.621094 119.371094 133.628906 C 117.714844 128.167969 116.835938 120.996094 116.757812 112.21875 C 116.757812 112.160156 116.746094 112.105469 116.742188 112.050781 C 116.742188 112.039062 116.738281 112.027344 116.738281 112.015625 C 116.722656 111.929688 116.703125 111.847656 116.675781 111.765625 C 116.675781 111.753906 116.671875 111.75 116.667969 111.738281 C 116.636719 111.65625 116.601562 111.578125 116.558594 111.503906 C 116.554688 111.496094 116.550781 111.492188 116.546875 111.484375 C 116.503906 111.410156 116.453125 111.34375 116.398438 111.277344 C 116.394531 111.269531 116.386719 111.261719 116.378906 111.257812 C 116.328125 111.195312 116.269531 111.140625 116.203125 111.089844 C 116.191406 111.082031 116.179688 111.070312 116.167969 111.0625 C 116.109375 111.019531 116.046875 110.980469 115.984375 110.945312 C 115.960938 110.933594 115.9375 110.921875 115.917969 110.910156 C 115.859375 110.882812 115.800781 110.863281 115.738281 110.84375 C 115.703125 110.832031 115.667969 110.820312 115.636719 110.8125 C 115.582031 110.800781 115.527344 110.792969 115.476562 110.785156 C 115.441406 110.78125 115.414062 110.769531 115.378906 110.769531 C 112.421875 110.582031 110.652344 108.664062 109.683594 107.089844 C 108.152344 104.585938 107.894531 101.820312 108.113281 101.082031 C 112.960938 96.777344 118.273438 98.628906 118.492188 98.710938 C 118.511719 98.714844 118.527344 98.71875 118.542969 98.722656 C 118.585938 98.738281 118.628906 98.75 118.671875 98.761719 C 118.699219 98.769531 118.722656 98.773438 118.75 98.777344 C 118.789062 98.78125 118.832031 98.789062 118.871094 98.792969 C 118.898438 98.796875 118.925781 98.796875 118.949219 98.796875 C 118.96875 98.796875 118.988281 98.800781 119.007812 98.800781 C 119.03125 98.800781 119.050781 98.796875 119.074219 98.796875 C 119.101562 98.796875 119.125 98.792969 119.152344 98.792969 C 119.195312 98.789062 119.234375 98.78125 119.273438 98.773438 C 119.300781 98.769531 119.328125 98.765625 119.351562 98.757812 C 119.390625 98.75 119.429688 98.734375 119.46875 98.722656 C 119.496094 98.714844 119.523438 98.707031 119.550781 98.695312 C 119.582031 98.683594 119.617188 98.667969 119.648438 98.648438 C 119.679688 98.636719 119.707031 98.621094 119.738281 98.605469 C 119.742188 98.601562 119.75 98.597656 119.757812 98.59375 C 119.769531 98.589844 119.777344 98.578125 119.789062 98.570312 C 119.847656 98.535156 119.90625 98.492188 119.960938 98.445312 C 119.980469 98.429688 120 98.410156 120.019531 98.394531 C 120.03125 98.382812 120.042969 98.371094 120.054688 98.359375 C 122.796875 95.558594 127.132812 94.625 131.003906 94.082031 C 137.765625 93.164062 143.933594 94.972656 147.921875 99.046875 C 147.929688 99.058594 147.941406 99.066406 147.953125 99.078125 C 147.976562 99.097656 148 99.117188 148.023438 99.136719 C 148.070312 99.175781 148.121094 99.214844 148.171875 99.246094 C 148.1875 99.257812 148.203125 99.273438 148.21875 99.28125 C 148.230469 99.289062 148.242188 99.292969 148.253906 99.300781 C 148.277344 99.3125 148.296875 99.320312 148.316406 99.332031 C 148.363281 99.355469 148.410156 99.375 148.457031 99.390625 C 148.472656 99.398438 148.488281 99.402344 148.507812 99.410156 C 148.558594 99.429688 148.617188 99.441406 148.671875 99.453125 C 148.683594 99.457031 148.695312 99.457031 148.707031 99.460938 C 148.765625 99.472656 148.828125 99.480469 148.886719 99.484375 C 148.898438 99.484375 148.910156 99.484375 148.917969 99.484375 C 148.933594 99.484375 148.949219 99.488281 148.96875 99.488281 C 149.019531 99.488281 149.070312 99.484375 149.121094 99.476562 C 149.125 99.476562 149.128906 99.476562 149.128906 99.476562 C 149.269531 99.460938 149.410156 99.425781 149.542969 99.371094 C 149.546875 99.367188 149.554688 99.367188 149.558594 99.363281 C 149.804688 99.257812 155.554688 96.828125 160.367188 101.070312 C 160.472656 101.65625 160.183594 103.6875 158.796875 105.785156 C 157.875 107.175781 156.269531 108.863281 153.855469 109.011719 C 153.828125 109.011719 153.804688 109.019531 153.78125 109.023438 C 153.734375 109.027344 153.683594 109.035156 153.632812 109.046875 C 153.585938 109.058594 153.539062 109.070312 153.496094 109.082031 C 153.449219 109.097656 153.40625 109.117188 153.363281 109.132812 C 153.320312 109.152344 153.273438 109.175781 153.230469 109.199219 C 153.191406 109.21875 153.15625 109.242188 153.117188 109.269531 C 153.078125 109.296875 153.039062 109.328125 153 109.355469 C 152.964844 109.386719 152.933594 109.417969 152.902344 109.449219 C 152.867188 109.484375 152.835938 109.519531 152.808594 109.558594 C 152.777344 109.59375 152.75 109.628906 152.726562 109.667969 C 152.699219 109.707031 152.675781 109.75 152.652344 109.789062 C 152.628906 109.832031 152.609375 109.875 152.59375 109.917969 C 152.574219 109.960938 152.558594 110.007812 152.542969 110.054688 C 152.53125 110.101562 152.519531 110.144531 152.511719 110.191406 C 152.5 110.238281 152.492188 110.289062 152.488281 110.339844 C 152.484375 110.367188 152.480469 110.386719 152.480469 110.414062 C 152.367188 113.136719 152.035156 116.492188 151.726562 117.144531 C 151.363281 117.867188 151.65625 118.75 152.378906 119.109375 C 152.589844 119.214844 152.816406 119.265625 153.035156 119.265625 C 153.574219 119.265625 154.089844 118.96875 154.347656 118.453125 C 154.945312 117.261719 155.230469 113.824219 155.347656 111.75 C 157.246094 111.328125 158.8125 110.277344 160.042969 108.945312 C 168.488281 111.574219 173.976562 110.4375 178.84375 109.429688 C 181.945312 108.785156 184.871094 108.179688 188.28125 108.640625 C 191.433594 109.066406 197.402344 108.84375 204.953125 108.5625 C 214.746094 108.199219 226.933594 107.746094 236.132812 108.730469 C 241.90625 109.347656 247.070312 112.171875 250.613281 116.445312 C 250.628906 116.46875 250.648438 116.492188 250.664062 116.511719 C 251.96875 118.097656 253.050781 119.878906 253.855469 121.824219 C 258.699219 133.511719 255.550781 146.847656 251.558594 163.734375 Z M 220.253906 200.117188 C 219.917969 205.945312 218.660156 208.566406 217.9375 209.609375 C 217.855469 209.730469 217.710938 209.800781 217.550781 209.800781 L 212.027344 209.800781 C 211.738281 209.800781 211.621094 209.609375 211.574219 209.496094 C 211.515625 209.359375 211.492188 209.152344 211.6875 208.960938 L 212.730469 207.957031 C 213.523438 207.191406 213.902344 206.085938 213.742188 205 C 213.28125 201.863281 212.074219 194.203125 210.835938 190.792969 C 210.367188 189.503906 209.117188 188.039062 207.226562 185.820312 C 205.210938 183.453125 202.550781 180.328125 199.917969 176.257812 C 200.851562 176.171875 201.796875 176.089844 202.75 176.007812 C 207.171875 175.632812 211.664062 175.246094 215.953125 174.179688 C 218.183594 177.695312 221.191406 180.929688 223.960938 183.726562 C 223.871094 184.046875 223.777344 184.371094 223.683594 184.699219 C 222.261719 189.722656 220.488281 195.976562 220.253906 200.117188 Z M 122.988281 141.324219 C 121.820312 139.726562 121.382812 137.707031 121.785156 135.78125 C 122.179688 133.898438 123.300781 132.328125 124.945312 131.363281 C 126.882812 130.230469 129.1875 129.753906 131.496094 129.753906 C 136.335938 129.753906 141.199219 131.847656 142.773438 134.339844 L 142.800781 134.382812 C 144.71875 137.457031 144.054688 141.480469 141.347656 143.886719 C 139.476562 145.398438 137.207031 146.460938 134.449219 146.667969 C 134.449219 146.667969 134.445312 146.667969 134.445312 146.667969 C 134.3125 146.679688 134.179688 146.683594 134.046875 146.691406 C 134.003906 146.691406 133.957031 146.695312 133.914062 146.695312 C 133.816406 146.699219 133.714844 146.699219 133.609375 146.703125 C 133.515625 146.703125 133.425781 146.707031 133.332031 146.703125 C 133.328125 146.703125 133.324219 146.703125 133.324219 146.703125 C 133.007812 146.703125 132.695312 146.6875 132.386719 146.667969 C 132.292969 146.660156 132.203125 146.648438 132.109375 146.640625 C 131.882812 146.621094 131.65625 146.597656 131.429688 146.566406 C 131.347656 146.554688 131.257812 146.542969 131.175781 146.527344 C 130.894531 146.484375 130.613281 146.433594 130.339844 146.371094 C 130.324219 146.367188 130.3125 146.367188 130.296875 146.363281 C 129.996094 146.292969 129.703125 146.214844 129.414062 146.125 C 129.363281 146.109375 129.3125 146.089844 129.265625 146.074219 C 129.03125 145.996094 128.800781 145.914062 128.570312 145.824219 C 128.507812 145.800781 128.441406 145.773438 128.375 145.746094 C 128.144531 145.648438 127.917969 145.542969 127.691406 145.433594 C 127.652344 145.414062 127.613281 145.394531 127.574219 145.375 C 127.316406 145.246094 127.066406 145.101562 126.816406 144.953125 C 126.75 144.910156 126.679688 144.863281 126.609375 144.820312 C 126.445312 144.710938 126.277344 144.601562 126.117188 144.484375 C 126.011719 144.410156 125.914062 144.335938 125.8125 144.261719 C 125.691406 144.167969 125.570312 144.066406 125.449219 143.96875 C 125.335938 143.875 125.222656 143.785156 125.113281 143.6875 C 125.039062 143.621094 124.972656 143.554688 124.902344 143.488281 C 124.632812 143.238281 124.367188 142.976562 124.113281 142.695312 C 124.0625 142.644531 124.015625 142.597656 123.972656 142.542969 C 123.824219 142.378906 123.683594 142.210938 123.542969 142.039062 C 123.5 141.988281 123.457031 141.9375 123.417969 141.882812 C 123.269531 141.703125 123.128906 141.515625 122.988281 141.324219 Z M 120.910156 88.847656 C 121.980469 86.898438 123.183594 86.035156 123.558594 86.023438 C 123.566406 86.023438 123.574219 86.023438 123.578125 86.023438 C 124.507812 86.023438 126.191406 88.097656 127.679688 91.667969 C 124.867188 92.238281 122.019531 93.15625 119.652344 94.867188 C 119.296875 92.816406 120.011719 90.480469 120.910156 88.847656 Z M 145.492188 86.023438 C 145.5 86.023438 145.507812 86.023438 145.515625 86.023438 C 145.660156 86.039062 146.433594 86.460938 147.285156 88.152344 C 148.339844 90.238281 148.914062 93.152344 148.382812 95.515625 C 146.265625 93.816406 143.78125 92.5625 141.042969 91.800781 C 141.886719 89.386719 144.21875 86.023438 145.492188 86.023438 Z M 266.804688 158.445312 C 266.535156 158.097656 266.199219 157.816406 265.820312 157.609375 C 265.847656 157.09375 265.867188 156.578125 265.894531 156.0625 C 266.308594 147.21875 266.703125 138.867188 265.175781 131.582031 C 263.445312 123.328125 259.359375 117.695312 252.699219 114.371094 C 248.683594 109.628906 242.894531 106.507812 236.445312 105.816406 C 227.035156 104.8125 214.730469 105.269531 204.84375 105.632812 C 197.726562 105.898438 191.578125 106.128906 188.671875 105.734375 C 184.769531 105.207031 181.453125 105.898438 178.246094 106.558594 C 173.710938 107.5 169.023438 108.46875 161.835938 106.421875 C 162.1875 105.769531 162.480469 105.101562 162.710938 104.449219 C 163.128906 103.261719 163.945312 100.359375 162.480469 99.023438 C 158.554688 95.449219 154.148438 95.375 151.320312 95.855469 C 151.957031 92.605469 151.082031 88.957031 149.695312 86.4375 C 148.535156 84.328125 147.082031 83.140625 145.601562 83.09375 C 142.140625 83.003906 139.195312 88.066406 138.183594 91.199219 C 135.789062 90.839844 133.253906 90.824219 130.644531 91.171875 C 129.296875 87.722656 126.875 83.09375 123.578125 83.09375 C 123.542969 83.09375 123.507812 83.09375 123.472656 83.09375 C 121.722656 83.148438 119.804688 84.769531 118.339844 87.4375 C 117.132812 89.628906 116.273438 92.605469 116.757812 95.386719 C 114.09375 95.125 109.910156 95.476562 106.015625 99.023438 C 104.496094 100.40625 105.226562 103.992188 105.894531 105.890625 C 106.613281 107.9375 108.773438 112.515625 113.847656 113.515625 C 114.039062 124.328125 115.472656 132.792969 118.113281 138.679688 C 118.859375 140.339844 119.707031 141.8125 120.652344 143.097656 C 121.207031 150.484375 123.515625 153.925781 125.554688 156.964844 C 127.242188 159.476562 128.699219 161.648438 129.121094 165.871094 C 129.800781 172.601562 136.707031 179.070312 142.253906 184.269531 C 144.917969 186.765625 147.9375 189.59375 148.148438 190.761719 C 148.816406 194.476562 150.402344 203.644531 150.710938 205.445312 C 150.738281 205.601562 150.683594 205.765625 150.570312 205.878906 L 149.546875 206.859375 C 148.539062 207.832031 148.226562 209.300781 148.75 210.601562 C 149.277344 211.898438 150.523438 212.738281 151.925781 212.738281 L 157.328125 212.738281 C 158.566406 212.738281 159.714844 212.066406 160.320312 210.984375 C 161.164062 209.476562 162.328125 206.460938 163.070312 200.640625 C 163.917969 194 163.945312 188.882812 163.894531 185.226562 C 166.164062 187.371094 168.324219 189.527344 168.5 190.507812 C 169.136719 194.054688 170.625 202.832031 171.066406 205.4375 C 171.09375 205.59375 171.039062 205.757812 170.921875 205.867188 L 169.902344 206.851562 C 168.890625 207.824219 168.578125 209.292969 169.105469 210.59375 C 169.628906 211.890625 170.875 212.730469 172.277344 212.730469 L 177.800781 212.730469 C 178.925781 212.730469 179.972656 212.1875 180.605469 211.273438 C 181.699219 209.691406 183.074219 206.5 183.429688 200.285156 C 183.804688 193.78125 186.316406 185.246094 188.496094 178.308594 C 191.035156 177.453125 193.78125 176.957031 196.667969 176.601562 C 199.652344 181.449219 202.722656 185.054688 204.996094 187.71875 C 206.496094 189.480469 207.789062 191 208.078125 191.792969 C 209.257812 195.039062 210.492188 203.050781 210.839844 205.425781 C 210.863281 205.582031 210.808594 205.738281 210.695312 205.847656 L 209.652344 206.851562 C 208.640625 207.824219 208.328125 209.292969 208.851562 210.59375 C 209.378906 211.890625 210.625 212.730469 212.027344 212.730469 L 217.550781 212.730469 C 218.671875 212.730469 219.722656 212.1875 220.351562 211.273438 C 221.445312 209.691406 222.824219 206.5 223.179688 200.285156 C 223.390625 196.617188 224.984375 190.875 226.335938 186.101562 C 228.539062 188.292969 230.53125 190.320312 230.925781 191.410156 C 232.242188 195.023438 233.539062 203.054688 233.90625 205.429688 C 233.929688 205.585938 233.875 205.742188 233.761719 205.851562 L 232.722656 206.851562 C 231.710938 207.824219 231.398438 209.292969 231.925781 210.59375 C 232.449219 211.890625 233.695312 212.730469 235.097656 212.730469 L 240.636719 212.730469 C 241.75 212.730469 242.789062 212.199219 243.421875 211.300781 C 244.515625 209.75 245.894531 206.589844 246.253906 200.375 C 246.78125 191.167969 250.242188 179.621094 252.105469 173.417969 C 252.628906 171.667969 253.007812 170.40625 253.179688 169.671875 C 253.59375 167.878906 254.007812 166.125 254.414062 164.40625 C 258.527344 147.007812 261.773438 133.265625 256.566406 120.703125 C 256.566406 120.699219 256.5625 120.695312 256.5625 120.691406 C 264.25 128.46875 263.625 141.867188 262.960938 155.925781 C 262.9375 156.449219 262.914062 156.980469 262.890625 157.507812 C 262.492188 157.691406 262.128906 157.953125 261.832031 158.289062 C 259.503906 160.90625 256.550781 166.9375 258.957031 169.632812 C 259.425781 170.164062 259.660156 171.253906 259.863281 172.214844 C 260.214844 173.859375 260.691406 176.109375 262.941406 176.273438 C 263.042969 176.28125 263.144531 176.285156 263.246094 176.285156 C 265.972656 176.285156 268.960938 173.671875 269.621094 168.488281 C 270.234375 163.679688 268.121094 160.132812 266.804688 158.445312 " fill-opacity="1" fill-rule="nonzero"/></g><g fill="#ffffff" fill-opacity="1"><g transform="translate(105.217186, 250.007136)"><g><path d="M 4.4375 -3.046875 C 2.207031 -5.210938 1.09375 -7.957031 1.09375 -11.28125 C 1.09375 -14.613281 2.207031 -17.363281 4.4375 -19.53125 C 6.664062 -21.695312 9.390625 -22.78125 12.609375 -22.78125 C 15.109375 -22.78125 17.328125 -22.117188 19.265625 -20.796875 C 21.203125 -19.472656 22.554688 -17.640625 23.328125 -15.296875 L 16.796875 -15.296875 C 15.941406 -16.941406 14.578125 -17.765625 12.703125 -17.765625 C 10.828125 -17.765625 9.347656 -17.175781 8.265625 -16 C 7.191406 -14.820312 6.65625 -13.253906 6.65625 -11.296875 C 6.65625 -9.335938 7.191406 -7.769531 8.265625 -6.59375 C 9.347656 -5.414062 10.828125 -4.828125 12.703125 -4.828125 C 14.578125 -4.828125 15.941406 -5.648438 16.796875 -7.296875 L 23.328125 -7.296875 C 22.554688 -4.953125 21.203125 -3.117188 19.265625 -1.796875 C 17.328125 -0.472656 15.109375 0.1875 12.609375 0.1875 C 9.390625 0.1875 6.664062 -0.890625 4.4375 -3.046875 Z M 4.4375 -3.046875 "/></g></g></g><g fill="#ffffff" fill-opacity="1"><g transform="translate(132.859178, 250.007136)"><g><path d="M 16.90625 -6.59375 C 17.988281 -7.769531 18.53125 -9.335938 18.53125 -11.296875 C 18.53125 -13.253906 17.988281 -14.820312 16.90625 -16 C 15.832031 -17.175781 14.394531 -17.765625 12.59375 -17.765625 C 10.789062 -17.765625 9.347656 -17.175781 8.265625 -16 C 7.191406 -14.820312 6.65625 -13.253906 6.65625 -11.296875 C 6.65625 -9.335938 7.191406 -7.769531 8.265625 -6.59375 C 9.347656 -5.414062 10.789062 -4.828125 12.59375 -4.828125 C 14.394531 -4.828125 15.832031 -5.414062 16.90625 -6.59375 Z M 4.4375 -3.03125 C 2.207031 -5.207031 1.09375 -7.957031 1.09375 -11.28125 C 1.09375 -14.613281 2.207031 -17.363281 4.4375 -19.53125 C 6.664062 -21.695312 9.394531 -22.78125 12.625 -22.78125 C 15.851562 -22.78125 18.570312 -21.695312 20.78125 -19.53125 C 22.988281 -17.363281 24.09375 -14.613281 24.09375 -11.28125 C 24.09375 -7.957031 22.984375 -5.207031 20.765625 -3.03125 C 18.546875 -0.863281 15.828125 0.21875 12.609375 0.21875 C 9.390625 0.21875 6.664062 -0.863281 4.4375 -3.03125 Z M 4.4375 -3.03125 "/></g></g></g><g fill="#ffffff" fill-opacity="1"><g transform="translate(161.268976, 250.007136)"><g><path d="M 27.328125 -22.46875 L 33.21875 -22.46875 L 26.9375 0 L 20.671875 0 L 16.734375 -14.234375 L 12.828125 0 L 6.5625 0 L 0.1875 -22.46875 L 6.046875 -22.46875 L 9.953125 -6.296875 L 13.953125 -22.46875 L 20.15625 -22.46875 L 24 -6.5625 Z M 27.328125 -22.46875 "/></g></g></g><g fill="#ffffff" fill-opacity="1"><g transform="translate(197.900762, 250.007136)"><g><path d="M 10.015625 -18.46875 C 9.328125 -18.46875 8.765625 -18.285156 8.328125 -17.921875 C 7.898438 -17.554688 7.6875 -17.03125 7.6875 -16.34375 C 7.6875 -15.664062 7.882812 -15.117188 8.28125 -14.703125 C 8.6875 -14.285156 9.210938 -13.960938 9.859375 -13.734375 C 10.515625 -13.515625 11.242188 -13.300781 12.046875 -13.09375 C 12.847656 -12.894531 13.640625 -12.648438 14.421875 -12.359375 C 15.210938 -12.078125 15.929688 -11.722656 16.578125 -11.296875 C 17.234375 -10.867188 17.765625 -10.265625 18.171875 -9.484375 C 18.578125 -8.703125 18.78125 -7.769531 18.78125 -6.6875 C 18.78125 -4.789062 18.003906 -3.164062 16.453125 -1.8125 C 14.910156 -0.457031 12.875 0.21875 10.34375 0.21875 C 7.820312 0.21875 5.785156 -0.382812 4.234375 -1.59375 C 2.691406 -2.8125 1.921875 -4.539062 1.921875 -6.78125 L 7.75 -6.78125 C 7.894531 -4.988281 8.8125 -4.09375 10.5 -4.09375 C 11.289062 -4.09375 11.910156 -4.300781 12.359375 -4.71875 C 12.804688 -5.132812 13.03125 -5.660156 13.03125 -6.296875 C 13.03125 -6.941406 12.828125 -7.46875 12.421875 -7.875 C 12.015625 -8.28125 11.484375 -8.597656 10.828125 -8.828125 C 10.179688 -9.066406 9.457031 -9.285156 8.65625 -9.484375 C 7.851562 -9.691406 7.054688 -9.941406 6.265625 -10.234375 C 5.484375 -10.535156 4.765625 -10.894531 4.109375 -11.3125 C 3.460938 -11.726562 2.9375 -12.320312 2.53125 -13.09375 C 2.125 -13.875 1.921875 -14.800781 1.921875 -15.875 C 1.921875 -17.96875 2.695312 -19.640625 4.25 -20.890625 C 5.8125 -22.148438 7.800781 -22.78125 10.21875 -22.78125 C 12.644531 -22.78125 14.601562 -22.226562 16.09375 -21.125 C 17.59375 -20.03125 18.375 -18.300781 18.4375 -15.9375 L 12.484375 -15.9375 C 12.398438 -16.75 12.140625 -17.375 11.703125 -17.8125 C 11.265625 -18.25 10.703125 -18.46875 10.015625 -18.46875 Z M 10.015625 -18.46875 "/></g></g></g><g fill="#ffffff" fill-opacity="1"><g transform="translate(221.799675, 250.007136)"><g><path d="M 16.671875 0 L 15.421875 -3.78125 L 7.359375 -3.78125 L 6.109375 0 L 0.28125 0 L 8.09375 -22.53125 L 14.75 -22.53125 L 22.53125 0 Z M 8.734375 -7.9375 L 14.046875 -7.9375 L 11.390625 -15.9375 Z M 8.734375 -7.9375 "/></g></g></g><g fill="#ffffff" fill-opacity="1"><g transform="translate(247.810068, 250.007136)"><g><path d="M 13.734375 0 L 8.25 0 L 8.25 -7.234375 L 0.484375 -22.46875 L 6.6875 -22.46875 L 11.015625 -12.3125 L 15.296875 -22.46875 L 21.5 -22.46875 L 13.734375 -7.234375 Z M 13.734375 0 "/></g></g></g><g fill="#ffffff" fill-opacity="1"><g transform="translate(82.600557, 274.00712)"><g><path d="M 0.90625 0 L 0.90625 -8.34375 L 2.265625 -8.34375 L 2.265625 0 Z M 0.90625 0 "/></g></g></g><g fill="#ffffff" fill-opacity="1"><g transform="translate(89.368567, 274.00712)"><g><path d="M 6.390625 -8.359375 L 7.75 -8.359375 L 7.75 0 L 6.390625 0 L 2.265625 -6.234375 L 2.265625 0 L 0.90625 0 L 0.90625 -8.359375 L 2.265625 -8.359375 L 6.390625 -2.140625 Z M 6.390625 -8.359375 "/></g></g></g><g fill="#ffffff" fill-opacity="1"><g transform="translate(101.620586, 274.00712)"><g><path d="M 0.90625 0 L 0.90625 -8.34375 L 5.8125 -8.34375 L 5.8125 -7.265625 L 2.265625 -7.265625 L 2.265625 -4.734375 L 5.03125 -4.734375 L 5.03125 -3.6875 L 2.265625 -3.6875 L 2.265625 0 Z M 0.90625 0 "/></g></g></g><g fill="#ffffff" fill-opacity="1"><g transform="translate(111.4006, 274.00712)"><g><path d="M 4.703125 -1.15625 C 5.546875 -1.15625 6.234375 -1.429688 6.765625 -1.984375 C 7.296875 -2.535156 7.5625 -3.265625 7.5625 -4.171875 C 7.5625 -5.085938 7.296875 -5.820312 6.765625 -6.375 C 6.234375 -6.925781 5.546875 -7.203125 4.703125 -7.203125 C 3.859375 -7.203125 3.171875 -6.925781 2.640625 -6.375 C 2.109375 -5.820312 1.84375 -5.085938 1.84375 -4.171875 C 1.84375 -3.265625 2.109375 -2.535156 2.640625 -1.984375 C 3.171875 -1.429688 3.859375 -1.15625 4.703125 -1.15625 Z M 4.703125 0.078125 C 3.515625 0.078125 2.503906 -0.320312 1.671875 -1.125 C 0.847656 -1.925781 0.4375 -2.941406 0.4375 -4.171875 C 0.4375 -5.410156 0.847656 -6.429688 1.671875 -7.234375 C 2.503906 -8.046875 3.515625 -8.453125 4.703125 -8.453125 C 5.898438 -8.453125 6.910156 -8.046875 7.734375 -7.234375 C 8.554688 -6.429688 8.96875 -5.410156 8.96875 -4.171875 C 8.96875 -2.941406 8.554688 -1.925781 7.734375 -1.125 C 6.910156 -0.320312 5.898438 0.078125 4.703125 0.078125 Z M 4.703125 0.078125 "/></g></g></g><g fill="#ffffff" fill-opacity="1"><g transform="translate(124.408615, 274.00712)"><g><path d="M 2.265625 -3.390625 L 2.265625 0 L 0.90625 0 L 0.90625 -8.34375 L 3.78125 -8.34375 C 4.726562 -8.34375 5.457031 -8.109375 5.96875 -7.640625 C 6.476562 -7.171875 6.734375 -6.578125 6.734375 -5.859375 C 6.734375 -5.296875 6.5625 -4.789062 6.21875 -4.34375 C 5.882812 -3.894531 5.363281 -3.601562 4.65625 -3.46875 L 6.859375 0 L 5.203125 0 L 3.109375 -3.390625 Z M 2.265625 -7.265625 L 2.265625 -4.453125 L 3.78125 -4.453125 C 4.300781 -4.453125 4.6875 -4.578125 4.9375 -4.828125 C 5.195312 -5.078125 5.328125 -5.421875 5.328125 -5.859375 C 5.328125 -6.304688 5.195312 -6.648438 4.9375 -6.890625 C 4.6875 -7.140625 4.300781 -7.265625 3.78125 -7.265625 Z M 2.265625 -7.265625 "/></g></g></g><g fill="#ffffff" fill-opacity="1"><g transform="translate(135.592627, 274.00712)"><g><path d="M 9.6875 -8.34375 L 9.6875 0 L 8.3125 0 L 8.3125 -5.71875 L 5.765625 0 L 4.828125 0 L 2.265625 -5.71875 L 2.265625 0 L 0.90625 0 L 0.90625 -8.34375 L 2.375 -8.34375 L 5.296875 -1.796875 L 8.21875 -8.34375 Z M 9.6875 -8.34375 "/></g></g></g><g fill="#ffffff" fill-opacity="1"><g transform="translate(149.776651, 274.00712)"><g><path d="M 6.53125 0 L 5.921875 -1.703125 L 2.4375 -1.703125 L 1.84375 0 L 0.40625 0 L 3.390625 -8.359375 L 4.984375 -8.359375 L 7.96875 0 Z M 2.8125 -2.765625 L 5.5625 -2.765625 L 4.1875 -6.703125 Z M 2.8125 -2.765625 "/></g></g></g><g fill="#ffffff" fill-opacity="1"><g transform="translate(161.74067, 274.00712)"><g><path d="M 0.46875 -7.265625 L 0.46875 -8.34375 L 6.28125 -8.34375 L 6.28125 -7.265625 L 4.0625 -7.265625 L 4.0625 0 L 2.703125 0 L 2.703125 -7.265625 Z M 0.46875 -7.265625 "/></g></g></g><g fill="#ffffff" fill-opacity="1"><g transform="translate(172.108685, 274.00712)"><g><path d="M 0.90625 0 L 0.90625 -8.34375 L 2.265625 -8.34375 L 2.265625 0 Z M 0.90625 0 "/></g></g></g><g fill="#ffffff" fill-opacity="1"><g transform="translate(178.876697, 274.00712)"><g><path d="M 4.703125 -1.15625 C 5.546875 -1.15625 6.234375 -1.429688 6.765625 -1.984375 C 7.296875 -2.535156 7.5625 -3.265625 7.5625 -4.171875 C 7.5625 -5.085938 7.296875 -5.820312 6.765625 -6.375 C 6.234375 -6.925781 5.546875 -7.203125 4.703125 -7.203125 C 3.859375 -7.203125 3.171875 -6.925781 2.640625 -6.375 C 2.109375 -5.820312 1.84375 -5.085938 1.84375 -4.171875 C 1.84375 -3.265625 2.109375 -2.535156 2.640625 -1.984375 C 3.171875 -1.429688 3.859375 -1.15625 4.703125 -1.15625 Z M 4.703125 0.078125 C 3.515625 0.078125 2.503906 -0.320312 1.671875 -1.125 C 0.847656 -1.925781 0.4375 -2.941406 0.4375 -4.171875 C 0.4375 -5.410156 0.847656 -6.429688 1.671875 -7.234375 C 2.503906 -8.046875 3.515625 -8.453125 4.703125 -8.453125 C 5.898438 -8.453125 6.910156 -8.046875 7.734375 -7.234375 C 8.554688 -6.429688 8.96875 -5.410156 8.96875 -4.171875 C 8.96875 -2.941406 8.554688 -1.925781 7.734375 -1.125 C 6.910156 -0.320312 5.898438 0.078125 4.703125 0.078125 Z M 4.703125 0.078125 "/></g></g></g><g fill="#ffffff" fill-opacity="1"><g transform="translate(191.884715, 274.00712)"><g><path d="M 6.390625 -8.359375 L 7.75 -8.359375 L 7.75 0 L 6.390625 0 L 2.265625 -6.234375 L 2.265625 0 L 0.90625 0 L 0.90625 -8.359375 L 2.265625 -8.359375 L 6.390625 -2.140625 Z M 6.390625 -8.359375 "/></g></g></g><g fill="#ffffff" fill-opacity="1"><g transform="translate(204.136736, 274.00712)"><g/></g></g><g fill="#ffffff" fill-opacity="1"><g transform="translate(211.33674, 274.00712)"><g><path d="M 3.484375 -7.328125 C 3.078125 -7.328125 2.742188 -7.222656 2.484375 -7.015625 C 2.234375 -6.804688 2.109375 -6.503906 2.109375 -6.109375 C 2.109375 -5.710938 2.257812 -5.410156 2.5625 -5.203125 C 2.875 -4.992188 3.242188 -4.84375 3.671875 -4.75 C 4.097656 -4.65625 4.523438 -4.546875 4.953125 -4.421875 C 5.390625 -4.296875 5.757812 -4.066406 6.0625 -3.734375 C 6.375 -3.398438 6.53125 -2.921875 6.53125 -2.296875 C 6.53125 -1.679688 6.269531 -1.128906 5.75 -0.640625 C 5.226562 -0.160156 4.53125 0.078125 3.65625 0.078125 C 2.789062 0.078125 2.082031 -0.125 1.53125 -0.53125 C 0.988281 -0.9375 0.71875 -1.5 0.71875 -2.21875 L 2.1875 -2.21875 C 2.21875 -1.851562 2.351562 -1.5625 2.59375 -1.34375 C 2.832031 -1.125 3.179688 -1.015625 3.640625 -1.015625 C 4.109375 -1.015625 4.472656 -1.132812 4.734375 -1.375 C 5.003906 -1.613281 5.140625 -1.894531 5.140625 -2.21875 C 5.140625 -2.550781 5.054688 -2.8125 4.890625 -3 C 4.734375 -3.1875 4.523438 -3.320312 4.265625 -3.40625 C 4.003906 -3.5 3.71875 -3.582031 3.40625 -3.65625 C 3.09375 -3.726562 2.773438 -3.8125 2.453125 -3.90625 C 2.140625 -4.007812 1.851562 -4.132812 1.59375 -4.28125 C 1.34375 -4.4375 1.132812 -4.660156 0.96875 -4.953125 C 0.800781 -5.242188 0.71875 -5.601562 0.71875 -6.03125 C 0.71875 -6.75 0.976562 -7.332031 1.5 -7.78125 C 2.03125 -8.226562 2.710938 -8.453125 3.546875 -8.453125 C 4.378906 -8.453125 5.046875 -8.257812 5.546875 -7.875 C 6.046875 -7.488281 6.328125 -6.929688 6.390625 -6.203125 L 4.875 -6.203125 C 4.84375 -6.523438 4.707031 -6.789062 4.46875 -7 C 4.226562 -7.21875 3.898438 -7.328125 3.484375 -7.328125 Z M 3.484375 -7.328125 "/></g></g></g><g fill="#ffffff" fill-opacity="1"><g transform="translate(222.184755, 274.00712)"><g><path d="M 5.515625 -8.359375 L 5.515625 -7.28125 L 2.265625 -7.28125 L 2.265625 -4.75 L 5.140625 -4.75 L 5.140625 -3.703125 L 2.265625 -3.703125 L 2.265625 -1.0625 L 5.515625 -1.0625 L 5.515625 0 L 0.90625 0 L 0.90625 -8.359375 Z M 5.515625 -8.359375 "/></g></g></g><g fill="#ffffff" fill-opacity="1"><g transform="translate(232.07277, 274.00712)"><g><path d="M 4.703125 0.078125 C 3.515625 0.078125 2.503906 -0.320312 1.671875 -1.125 C 0.847656 -1.925781 0.4375 -2.941406 0.4375 -4.171875 C 0.4375 -5.410156 0.847656 -6.429688 1.671875 -7.234375 C 2.503906 -8.046875 3.515625 -8.453125 4.703125 -8.453125 C 5.585938 -8.453125 6.375 -8.234375 7.0625 -7.796875 C 7.757812 -7.359375 8.265625 -6.738281 8.578125 -5.9375 L 6.9375 -5.9375 C 6.488281 -6.78125 5.742188 -7.203125 4.703125 -7.203125 C 3.859375 -7.203125 3.171875 -6.925781 2.640625 -6.375 C 2.109375 -5.820312 1.84375 -5.085938 1.84375 -4.171875 C 1.84375 -3.265625 2.109375 -2.535156 2.640625 -1.984375 C 3.171875 -1.429688 3.859375 -1.15625 4.703125 -1.15625 C 5.742188 -1.15625 6.488281 -1.578125 6.9375 -2.421875 L 8.578125 -2.421875 C 8.265625 -1.617188 7.757812 -1 7.0625 -0.5625 C 6.375 -0.132812 5.585938 0.078125 4.703125 0.078125 Z M 4.703125 0.078125 "/></g></g></g><g fill="#ffffff" fill-opacity="1"><g transform="translate(244.948791, 274.00712)"><g><path d="M 0.890625 -3.046875 L 0.890625 -8.34375 L 2.25 -8.34375 L 2.25 -3.046875 C 2.25 -2.410156 2.414062 -1.929688 2.75 -1.609375 C 3.082031 -1.296875 3.546875 -1.140625 4.140625 -1.140625 C 4.742188 -1.140625 5.207031 -1.296875 5.53125 -1.609375 C 5.863281 -1.929688 6.03125 -2.410156 6.03125 -3.046875 L 6.03125 -8.34375 L 7.40625 -8.34375 L 7.40625 -3.046875 C 7.40625 -2.035156 7.085938 -1.257812 6.453125 -0.71875 C 5.828125 -0.1875 5.046875 0.078125 4.109375 0.078125 C 3.179688 0.078125 2.410156 -0.1875 1.796875 -0.71875 C 1.191406 -1.257812 0.890625 -2.035156 0.890625 -3.046875 Z M 0.890625 -3.046875 "/></g></g></g><g fill="#ffffff" fill-opacity="1"><g transform="translate(256.828811, 274.00712)"><g><path d="M 2.265625 -3.390625 L 2.265625 0 L 0.90625 0 L 0.90625 -8.34375 L 3.78125 -8.34375 C 4.726562 -8.34375 5.457031 -8.109375 5.96875 -7.640625 C 6.476562 -7.171875 6.734375 -6.578125 6.734375 -5.859375 C 6.734375 -5.296875 6.5625 -4.789062 6.21875 -4.34375 C 5.882812 -3.894531 5.363281 -3.601562 4.65625 -3.46875 L 6.859375 0 L 5.203125 0 L 3.109375 -3.390625 Z M 2.265625 -7.265625 L 2.265625 -4.453125 L 3.78125 -4.453125 C 4.300781 -4.453125 4.6875 -4.578125 4.9375 -4.828125 C 5.195312 -5.078125 5.328125 -5.421875 5.328125 -5.859375 C 5.328125 -6.304688 5.195312 -6.648438 4.9375 -6.890625 C 4.6875 -7.140625 4.300781 -7.265625 3.78125 -7.265625 Z M 2.265625 -7.265625 "/></g></g></g><g fill="#ffffff" fill-opacity="1"><g transform="translate(268.012823, 274.00712)"><g><path d="M 0.90625 0 L 0.90625 -8.34375 L 2.265625 -8.34375 L 2.265625 0 Z M 0.90625 0 "/></g></g></g><g fill="#ffffff" fill-opacity="1"><g transform="translate(274.780836, 274.00712)"><g><path d="M 0.46875 -7.265625 L 0.46875 -8.34375 L 6.28125 -8.34375 L 6.28125 -7.265625 L 4.0625 -7.265625 L 4.0625 0 L 2.703125 0 L 2.703125 -7.265625 Z M 0.46875 -7.265625 "/></g></g></g><g fill="#ffffff" fill-opacity="1"><g transform="translate(285.148839, 274.00712)"><g><path d="M 4.3125 0 L 2.953125 0 L 2.953125 -3.03125 L 0.1875 -8.34375 L 1.703125 -8.34375 L 3.625 -4.265625 L 5.546875 -8.34375 L 7.078125 -8.34375 L 4.3125 -3.03125 Z M 4.3125 0 "/></g></g></g><g fill="#ffffff" fill-opacity="1"><g transform="translate(144.358365, 288.257119)"><g><path d="M 2.265625 -3.390625 L 2.265625 0 L 0.90625 0 L 0.90625 -8.34375 L 3.78125 -8.34375 C 4.726562 -8.34375 5.457031 -8.109375 5.96875 -7.640625 C 6.476562 -7.171875 6.734375 -6.578125 6.734375 -5.859375 C 6.734375 -5.296875 6.5625 -4.789062 6.21875 -4.34375 C 5.882812 -3.894531 5.363281 -3.601562 4.65625 -3.46875 L 6.859375 0 L 5.203125 0 L 3.109375 -3.390625 Z M 2.265625 -7.265625 L 2.265625 -4.453125 L 3.78125 -4.453125 C 4.300781 -4.453125 4.6875 -4.578125 4.9375 -4.828125 C 5.195312 -5.078125 5.328125 -5.421875 5.328125 -5.859375 C 5.328125 -6.304688 5.195312 -6.648438 4.9375 -6.890625 C 4.6875 -7.140625 4.300781 -7.265625 3.78125 -7.265625 Z M 2.265625 -7.265625 "/></g></g></g><g fill="#ffffff" fill-opacity="1"><g transform="translate(155.542376, 288.257119)"><g><path d="M 5.515625 -8.359375 L 5.515625 -7.28125 L 2.265625 -7.28125 L 2.265625 -4.75 L 5.140625 -4.75 L 5.140625 -3.703125 L 2.265625 -3.703125 L 2.265625 -1.0625 L 5.515625 -1.0625 L 5.515625 0 L 0.90625 0 L 0.90625 -8.359375 Z M 5.515625 -8.359375 "/></g></g></g><g fill="#ffffff" fill-opacity="1"><g transform="translate(165.430389, 288.257119)"><g><path d="M 3.484375 -7.328125 C 3.078125 -7.328125 2.742188 -7.222656 2.484375 -7.015625 C 2.234375 -6.804688 2.109375 -6.503906 2.109375 -6.109375 C 2.109375 -5.710938 2.257812 -5.410156 2.5625 -5.203125 C 2.875 -4.992188 3.242188 -4.84375 3.671875 -4.75 C 4.097656 -4.65625 4.523438 -4.546875 4.953125 -4.421875 C 5.390625 -4.296875 5.757812 -4.066406 6.0625 -3.734375 C 6.375 -3.398438 6.53125 -2.921875 6.53125 -2.296875 C 6.53125 -1.679688 6.269531 -1.128906 5.75 -0.640625 C 5.226562 -0.160156 4.53125 0.078125 3.65625 0.078125 C 2.789062 0.078125 2.082031 -0.125 1.53125 -0.53125 C 0.988281 -0.9375 0.71875 -1.5 0.71875 -2.21875 L 2.1875 -2.21875 C 2.21875 -1.851562 2.351562 -1.5625 2.59375 -1.34375 C 2.832031 -1.125 3.179688 -1.015625 3.640625 -1.015625 C 4.109375 -1.015625 4.472656 -1.132812 4.734375 -1.375 C 5.003906 -1.613281 5.140625 -1.894531 5.140625 -2.21875 C 5.140625 -2.550781 5.054688 -2.8125 4.890625 -3 C 4.734375 -3.1875 4.523438 -3.320312 4.265625 -3.40625 C 4.003906 -3.5 3.71875 -3.582031 3.40625 -3.65625 C 3.09375 -3.726562 2.773438 -3.8125 2.453125 -3.90625 C 2.140625 -4.007812 1.851562 -4.132812 1.59375 -4.28125 C 1.34375 -4.4375 1.132812 -4.660156 0.96875 -4.953125 C 0.800781 -5.242188 0.71875 -5.601562 0.71875 -6.03125 C 0.71875 -6.75 0.976562 -7.332031 1.5 -7.78125 C 2.03125 -8.226562 2.710938 -8.453125 3.546875 -8.453125 C 4.378906 -8.453125 5.046875 -8.257812 5.546875 -7.875 C 6.046875 -7.488281 6.328125 -6.929688 6.390625 -6.203125 L 4.875 -6.203125 C 4.84375 -6.523438 4.707031 -6.789062 4.46875 -7 C 4.226562 -7.21875 3.898438 -7.328125 3.484375 -7.328125 Z M 3.484375 -7.328125 "/></g></g></g><g fill="#ffffff" fill-opacity="1"><g transform="translate(176.278402, 288.257119)"><g><path d="M 5.515625 -8.359375 L 5.515625 -7.28125 L 2.265625 -7.28125 L 2.265625 -4.75 L 5.140625 -4.75 L 5.140625 -3.703125 L 2.265625 -3.703125 L 2.265625 -1.0625 L 5.515625 -1.0625 L 5.515625 0 L 0.90625 0 L 0.90625 -8.359375 Z M 5.515625 -8.359375 "/></g></g></g><g fill="#ffffff" fill-opacity="1"><g transform="translate(186.166414, 288.257119)"><g><path d="M 6.53125 0 L 5.921875 -1.703125 L 2.4375 -1.703125 L 1.84375 0 L 0.40625 0 L 3.390625 -8.359375 L 4.984375 -8.359375 L 7.96875 0 Z M 2.8125 -2.765625 L 5.5625 -2.765625 L 4.1875 -6.703125 Z M 2.8125 -2.765625 "/></g></g></g><g fill="#ffffff" fill-opacity="1"><g transform="translate(198.13043, 288.257119)"><g><path d="M 2.265625 -3.390625 L 2.265625 0 L 0.90625 0 L 0.90625 -8.34375 L 3.78125 -8.34375 C 4.726562 -8.34375 5.457031 -8.109375 5.96875 -7.640625 C 6.476562 -7.171875 6.734375 -6.578125 6.734375 -5.859375 C 6.734375 -5.296875 6.5625 -4.789062 6.21875 -4.34375 C 5.882812 -3.894531 5.363281 -3.601562 4.65625 -3.46875 L 6.859375 0 L 5.203125 0 L 3.109375 -3.390625 Z M 2.265625 -7.265625 L 2.265625 -4.453125 L 3.78125 -4.453125 C 4.300781 -4.453125 4.6875 -4.578125 4.9375 -4.828125 C 5.195312 -5.078125 5.328125 -5.421875 5.328125 -5.859375 C 5.328125 -6.304688 5.195312 -6.648438 4.9375 -6.890625 C 4.6875 -7.140625 4.300781 -7.265625 3.78125 -7.265625 Z M 2.265625 -7.265625 "/></g></g></g><g fill="#ffffff" fill-opacity="1"><g transform="translate(209.314443, 288.257119)"><g><path d="M 4.703125 0.078125 C 3.515625 0.078125 2.503906 -0.320312 1.671875 -1.125 C 0.847656 -1.925781 0.4375 -2.941406 0.4375 -4.171875 C 0.4375 -5.410156 0.847656 -6.429688 1.671875 -7.234375 C 2.503906 -8.046875 3.515625 -8.453125 4.703125 -8.453125 C 5.585938 -8.453125 6.375 -8.234375 7.0625 -7.796875 C 7.757812 -7.359375 8.265625 -6.738281 8.578125 -5.9375 L 6.9375 -5.9375 C 6.488281 -6.78125 5.742188 -7.203125 4.703125 -7.203125 C 3.859375 -7.203125 3.171875 -6.925781 2.640625 -6.375 C 2.109375 -5.820312 1.84375 -5.085938 1.84375 -4.171875 C 1.84375 -3.265625 2.109375 -2.535156 2.640625 -1.984375 C 3.171875 -1.429688 3.859375 -1.15625 4.703125 -1.15625 C 5.742188 -1.15625 6.488281 -1.578125 6.9375 -2.421875 L 8.578125 -2.421875 C 8.265625 -1.617188 7.757812 -1 7.0625 -0.5625 C 6.375 -0.132812 5.585938 0.078125 4.703125 0.078125 Z M 4.703125 0.078125 "/></g></g></g><g fill="#ffffff" fill-opacity="1"><g transform="translate(222.190464, 288.257119)"><g><path d="M 6.1875 -8.34375 L 7.5625 -8.34375 L 7.5625 0 L 6.1875 0 L 6.1875 -3.6875 L 2.265625 -3.6875 L 2.265625 0 L 0.90625 0 L 0.90625 -8.34375 L 2.265625 -8.34375 L 2.265625 -4.734375 L 6.1875 -4.734375 Z M 6.1875 -8.34375 "/></g></g></g></svg>